<?xml version="1.0" standalone="no"?>
<!DOCTYPE svg PUBLIC "-//W3C//DTD SVG 20010904//EN"
 "http://www.w3.org/TR/2001/REC-SVG-20010904/DTD/svg10.dtd">
<svg version="1.0" xmlns="http://www.w3.org/2000/svg"
 width="200.000000pt" height="135.000000pt" viewBox="0 0 200.000000 135.000000"
 preserveAspectRatio="xMidYMid meet">

<g transform="translate(0.000000,135.000000) scale(0.100000,-0.100000)"
fill="#000000" stroke="none">
<path d="M576 1333 c-2 -10 -17 -93 -32 -185 l-27 -167 -36 40 c-44 49 -97 64
-167 49 -62 -14 -94 -32 -137 -77 -49 -50 -71 -111 -97 -277 -38 -238 -16
-354 75 -392 72 -30 183 -7 243 49 l24 22 -7 -38 -7 -38 103 3 103 3 76 465
c43 256 80 486 84 513 l7 47 -100 0 c-86 0 -100 -2 -105 -17z m-132 -435 c44
-19 49 -64 25 -213 -12 -71 -28 -142 -37 -157 -40 -69 -151 -62 -167 11 -6 28
27 249 44 293 11 28 38 54 71 67 33 13 35 13 64 -1z"/>
<path d="M870 1265 l0 -85 60 0 c48 0 60 -3 60 -16 0 -14 -94 -589 -106 -647
-6 -27 -6 -27 -90 -27 l-84 0 0 -85 0 -85 250 0 250 0 0 85 0 85 -60 0 c-56 0
-60 2 -60 23 1 12 31 205 69 430 l67 407 -178 0 -178 0 0 -85z"/>
<path d="M1730 1071 c-44 -9 -78 -27 -112 -58 l-26 -25 5 41 6 41 -101 0 -100
0 -6 -27 c-6 -29 -166 -1002 -166 -1009 0 -4 200 -6 201 -1 0 1 15 87 32 192
l33 190 22 -37 c43 -70 143 -88 237 -44 99 47 142 124 176 316 51 290 16 400
-131 422 -19 3 -51 3 -70 -1z m-32 -172 c47 -16 57 -53 43 -157 -28 -199 -53
-249 -128 -259 -85 -11 -99 44 -64 250 21 121 37 152 84 166 17 5 32 10 33 10
1 1 15 -4 32 -10z"/>
</g>
</svg>
